<?xml version="1.0" encoding="UTF-8"?>
<!-- Created with Inkscape (http://www.inkscape.org/) -->
<svg width="500.7" height="500.52" version="1.1" viewBox="0 0 132.48 132.43" xml:space="preserve" xmlns="http://www.w3.org/2000/svg"><g transform="matrix(1.3446 0 0 1.3446 -19.502 -22.744)" fill-rule="evenodd"><path d="m81.389 64.778-32.377 40.054 7.6212 7.6212 32.263-40.168z" fill="#ff7f2a" stop-color="#000000" style="font-variation-settings:normal"/><path d="m63.764 19.864c-18.018 0-32.731 14.706-32.731 32.719-1e-6 5.4306 1.3386 10.56 3.7006 15.077l19.359 23.988 5.7433-7.5892-16.695-21.253c-1.52-3.0751-2.3771-6.5427-2.3771-10.223 2e-6 -12.751 10.238-22.986 23-22.986 12.762 0 23.002 10.235 23.002 22.986 0 2.9176-0.54158 5.7005-1.5214 8.262l7.2962 7.2957c2.5215-4.6321 3.9558-9.9337 3.9558-15.558 0-18.013-14.714-32.719-32.732-32.719z" color="#000000" fill="#d45500" stop-color="#000000" style="-inkscape-stroke:none;font-variation-settings:normal"/><circle cx="63.764" cy="52.582" r="11.293" fill="#ff7f2a" stop-color="#000000" style="-inkscape-stroke:none;font-variation-settings:normal"/></g></svg>
